<svg width="25" height="25" viewBox="0 0 25 25" fill="none" xmlns="http://www.w3.org/2000/svg">
<path d="M12.1055 24.2109C10.4336 24.2109 8.86719 23.8945 7.40625 23.2617C5.94531 22.6367 4.66016 21.7695 3.55078 20.6602C2.44141 19.5508 1.57031 18.2656 0.9375 16.8047C0.3125 15.3438 0 13.7773 0 12.1055C0 10.4336 0.3125 8.86719 0.9375 7.40625C1.57031 5.9375 2.44141 4.65234 3.55078 3.55078C4.66016 2.44141 5.94531 1.57422 7.40625 0.949219C8.86719 0.316406 10.4336 0 12.1055 0C13.7773 0 15.3438 0.316406 16.8047 0.949219C18.2734 1.57422 19.5625 2.44141 20.6719 3.55078C21.7812 4.65234 22.6484 5.9375 23.2734 7.40625C23.9062 8.86719 24.2227 10.4336 24.2227 12.1055C24.2227 13.7773 23.9062 15.3438 23.2734 16.8047C22.6484 18.2656 21.7812 19.5508 20.6719 20.6602C19.5625 21.7695 18.2734 22.6367 16.8047 23.2617C15.3438 23.8945 13.7773 24.2109 12.1055 24.2109ZM10.8047 17.8828C11.0234 17.8828 11.2227 17.832 11.4023 17.7305C11.5898 17.6289 11.7539 17.4766 11.8945 17.2734L17.3789 8.71875C17.457 8.59375 17.5273 8.46094 17.5898 8.32031C17.6523 8.17188 17.6836 8.03125 17.6836 7.89844C17.6836 7.59375 17.5664 7.34766 17.332 7.16016C17.1055 6.97266 16.8477 6.87891 16.5586 6.87891C16.1758 6.87891 15.8594 7.08203 15.6094 7.48828L10.7578 15.2461L8.50781 12.3867C8.35156 12.1914 8.19922 12.0547 8.05078 11.9766C7.90234 11.8984 7.73438 11.8594 7.54688 11.8594C7.25 11.8594 6.99609 11.9688 6.78516 12.1875C6.58203 12.3984 6.48047 12.6523 6.48047 12.9492C6.48047 13.0977 6.50781 13.2422 6.5625 13.3828C6.61719 13.5234 6.69531 13.6602 6.79688 13.793L9.66797 17.2852C9.83984 17.4961 10.0156 17.6484 10.1953 17.7422C10.375 17.8359 10.5781 17.8828 10.8047 17.8828Z" fill="#445E91"/>
</svg>
