<svg width="24" height="24" viewBox="0 0 24 24" fill="none" xmlns="http://www.w3.org/2000/svg">
<foreignObject x="9.2002" y="2.54321" width="18.7998" height="18.9136"><div xmlns="http://www.w3.org/1999/xhtml" style="backdrop-filter:blur(2.5px);clip-path:url(#bgblur_0_2324_53780_clip_path);height:100%;width:100%"></div></foreignObject><path data-figma-bg-blur-radius="5" d="M21.7197 7.70117C22.0776 7.61059 22.3112 7.62586 22.499 7.75098C22.6869 7.87623 22.7917 8.08587 22.8457 8.45117C22.9 8.81842 22.9004 9.31836 22.9004 10V14C22.9004 14.6816 22.9 15.1816 22.8457 15.5488C22.7917 15.9141 22.6869 16.1238 22.499 16.249C22.3112 16.3741 22.0776 16.3894 21.7197 16.2988C21.3599 16.2077 20.8985 16.016 20.2695 15.7539L19.9004 15.5996C18.0101 14.812 16.602 14.2253 15.666 13.6699C14.7271 13.1128 14.2998 12.6089 14.2998 12C14.2998 11.3911 14.7271 10.8872 15.666 10.3301C16.602 9.77474 18.0101 9.18801 19.9004 8.40039L20.2695 8.24609C20.8985 7.98403 21.3599 7.79229 21.7197 7.70117Z" fill="url(#paint0_linear_2324_53780)" stroke="url(#paint1_linear_2324_53780)" stroke-width="0.2"/>
<foreignObject x="-3" y="0" width="26" height="24"><div xmlns="http://www.w3.org/1999/xhtml" style="backdrop-filter:blur(2.5px);clip-path:url(#bgblur_1_2324_53780_clip_path);height:100%;width:100%"></div></foreignObject><path data-figma-bg-blur-radius="5" d="M6 5.09961H14C14.9456 5.09961 15.6452 5.09976 16.1816 5.17188C16.715 5.24362 17.0726 5.38509 17.3438 5.65625C17.6149 5.92741 17.7564 6.28502 17.8281 6.81836C17.9002 7.35477 17.9004 8.05436 17.9004 9V15C17.9004 15.9456 17.9002 16.6452 17.8281 17.1816C17.7564 17.715 17.6149 18.0726 17.3438 18.3438C17.0726 18.6149 16.715 18.7564 16.1816 18.8281C15.6452 18.9002 14.9456 18.9004 14 18.9004H6C5.05436 18.9004 4.35478 18.9002 3.81836 18.8281C3.28502 18.7564 2.92741 18.6149 2.65625 18.3438C2.38509 18.0726 2.24362 17.715 2.17188 17.1816C2.09976 16.6452 2.09961 15.9456 2.09961 15V9C2.09961 8.05436 2.09976 7.35478 2.17188 6.81836C2.24362 6.28502 2.38509 5.92741 2.65625 5.65625C2.92741 5.38509 3.28502 5.24362 3.81836 5.17188C4.35478 5.09976 5.05436 5.09961 6 5.09961Z" fill="url(#paint2_linear_2324_53780)" stroke="url(#paint3_linear_2324_53780)" stroke-width="0.2"/>
<path d="M7.37793 8.44434C7.48007 8.40393 7.60188 8.41427 7.78027 8.47852C7.95889 8.54286 8.18416 8.65801 8.49023 8.81348L12.3477 10.7725C12.6743 10.9384 12.9151 11.061 13.082 11.1738C13.2489 11.2866 13.3319 11.3835 13.3574 11.4941C13.3713 11.5546 13.3743 11.6172 13.3662 11.6787C13.3513 11.7911 13.2781 11.8954 13.123 12.0234C12.9676 12.1517 12.7389 12.2968 12.4297 12.4932L8.57227 14.9424C8.25346 15.1448 8.01845 15.2942 7.83105 15.3828C7.64338 15.4715 7.51468 15.4934 7.40527 15.457C7.34562 15.4372 7.28996 15.4069 7.24121 15.3672C7.15188 15.2943 7.1019 15.1737 7.07617 14.9678C7.05048 14.762 7.0498 14.4833 7.0498 14.1055V9.69727C7.0498 9.35387 7.0497 9.10052 7.07324 8.91211C7.09676 8.72397 7.14328 8.61084 7.22559 8.53809C7.2706 8.49836 7.32211 8.46643 7.37793 8.44434Z" fill="url(#paint4_linear_2324_53780)" fill-opacity="0.9" stroke="url(#paint5_linear_2324_53780)" stroke-width="0.1"/>
<defs>
<clipPath id="bgblur_0_2324_53780_clip_path" transform="translate(-9.2002 -2.54321)"><path d="M21.7197 7.70117C22.0776 7.61059 22.3112 7.62586 22.499 7.75098C22.6869 7.87623 22.7917 8.08587 22.8457 8.45117C22.9 8.81842 22.9004 9.31836 22.9004 10V14C22.9004 14.6816 22.9 15.1816 22.8457 15.5488C22.7917 15.9141 22.6869 16.1238 22.499 16.249C22.3112 16.3741 22.0776 16.3894 21.7197 16.2988C21.3599 16.2077 20.8985 16.016 20.2695 15.7539L19.9004 15.5996C18.0101 14.812 16.602 14.2253 15.666 13.6699C14.7271 13.1128 14.2998 12.6089 14.2998 12C14.2998 11.3911 14.7271 10.8872 15.666 10.3301C16.602 9.77474 18.0101 9.18801 19.9004 8.40039L20.2695 8.24609C20.8985 7.98403 21.3599 7.79229 21.7197 7.70117Z"/>
</clipPath><clipPath id="bgblur_1_2324_53780_clip_path" transform="translate(3 0)"><path d="M6 5.09961H14C14.9456 5.09961 15.6452 5.09976 16.1816 5.17188C16.715 5.24362 17.0726 5.38509 17.3438 5.65625C17.6149 5.92741 17.7564 6.28502 17.8281 6.81836C17.9002 7.35477 17.9004 8.05436 17.9004 9V15C17.9004 15.9456 17.9002 16.6452 17.8281 17.1816C17.7564 17.715 17.6149 18.0726 17.3438 18.3438C17.0726 18.6149 16.715 18.7564 16.1816 18.8281C15.6452 18.9002 14.9456 18.9004 14 18.9004H6C5.05436 18.9004 4.35478 18.9002 3.81836 18.8281C3.28502 18.7564 2.92741 18.6149 2.65625 18.3438C2.38509 18.0726 2.24362 17.715 2.17188 17.1816C2.09976 16.6452 2.09961 15.9456 2.09961 15V9C2.09961 8.05436 2.09976 7.35478 2.17188 6.81836C2.24362 6.28502 2.38509 5.92741 2.65625 5.65625C2.92741 5.38509 3.28502 5.24362 3.81836 5.17188C4.35478 5.09976 5.05436 5.09961 6 5.09961Z"/>
</clipPath><linearGradient id="paint0_linear_2324_53780" x1="23.5" y1="7.5" x2="20.7132" y2="15.1261" gradientUnits="userSpaceOnUse">
<stop stop-color="#6CA5F4"/>
<stop offset="1" stop-color="#2673E0"/>
</linearGradient>
<linearGradient id="paint1_linear_2324_53780" x1="11.4" y1="7.41667" x2="22.5682" y2="16.5498" gradientUnits="userSpaceOnUse">
<stop stop-color="white"/>
<stop offset="1" stop-color="white" stop-opacity="0"/>
</linearGradient>
<linearGradient id="paint2_linear_2324_53780" x1="2" y1="6.75" x2="15.3662" y2="13.618" gradientUnits="userSpaceOnUse">
<stop stop-color="#6CA5F4"/>
<stop offset="1" stop-color="#2673E0"/>
</linearGradient>
<linearGradient id="paint3_linear_2324_53780" x1="2.53333" y1="5.58333" x2="18.0005" y2="17.6297" gradientUnits="userSpaceOnUse">
<stop stop-color="white"/>
<stop offset="1" stop-color="white" stop-opacity="0"/>
</linearGradient>
<linearGradient id="paint4_linear_2324_53780" x1="7.97609" y1="8.58334" x2="16.6914" y2="10.3219" gradientUnits="userSpaceOnUse">
<stop stop-color="white"/>
<stop offset="1" stop-color="white" stop-opacity="0"/>
</linearGradient>
<linearGradient id="paint5_linear_2324_53780" x1="10.5" y1="8" x2="10.5" y2="16" gradientUnits="userSpaceOnUse">
<stop stop-color="white"/>
<stop offset="1" stop-color="white" stop-opacity="0"/>
</linearGradient>
</defs>
</svg>
