<svg width="48" height="48" viewBox="0 0 48 48" fill="none" xmlns="http://www.w3.org/2000/svg">
<rect x="30" y="4" width="30" height="22" rx="4" transform="rotate(90 30 4)" fill="url(#paint0_linear_2538_63098)"/>
<foreignObject x="3.7998" y="1.80005" width="46.4014" height="52.3999"><div xmlns="http://www.w3.org/1999/xhtml" style="backdrop-filter:blur(5px);clip-path:url(#bgblur_0_2538_63098_clip_path);height:100%;width:100%"></div></foreignObject><path data-figma-bg-blur-radius="10" d="M22 44L31.8646 44C35.6068 44 37.4779 44 38.6474 42.8403C39.8169 41.6807 39.8327 39.8097 39.8643 36.0676L40 20L29.9229 12L22 12C18.2288 12 16.3431 12 15.1716 13.1716C14 14.3431 14 16.2288 14 20L14 36C14 39.7712 14 41.6569 15.1716 42.8284C16.3431 44 18.2288 44 22 44Z" fill="#2673E0" fill-opacity="0.6" stroke="url(#paint1_linear_2538_63098)" stroke-width="0.4"/>
<foreignObject x="-0.0771484" y="-18" width="70.0771" height="68"><div xmlns="http://www.w3.org/1999/xhtml" style="backdrop-filter:blur(15px);clip-path:url(#bgblur_1_2538_63098_clip_path);height:100%;width:100%"></div></foreignObject><path data-figma-bg-blur-radius="30" d="M33.9229 19.9004C31.769 19.9003 30.0225 18.1539 30.0225 16L30.0225 12.207L39.7139 19.9004L33.9229 19.9004Z" fill="url(#paint2_linear_2538_63098)" stroke="url(#paint3_linear_2538_63098)" stroke-width="0.2"/>
<mask id="path-4-inside-1_2538_63098" fill="white">
<path d="M34.7168 32C35.5095 32.0001 36.1523 32.6428 36.1523 33.4355V33.7646C36.1522 34.5573 35.5095 35.2001 34.7168 35.2002H23.2969C22.5041 35.2001 21.8615 34.5574 21.8613 33.7646V33.4355C21.8614 32.6427 22.5041 32.0001 23.2969 32H34.7168ZM30.6855 25.999C31.4783 25.9992 32.121 26.6418 32.1211 27.4346V27.7637C32.1209 28.5563 31.4782 29.1991 30.6855 29.1992H19.2656C18.4729 29.1992 17.8302 28.5564 17.8301 27.7637V27.4346C17.8301 26.6418 18.4728 25.9991 19.2656 25.999H30.6855Z"/>
</mask>
<path d="M34.7168 32C35.5095 32.0001 36.1523 32.6428 36.1523 33.4355V33.7646C36.1522 34.5573 35.5095 35.2001 34.7168 35.2002H23.2969C22.5041 35.2001 21.8615 34.5574 21.8613 33.7646V33.4355C21.8614 32.6427 22.5041 32.0001 23.2969 32H34.7168ZM30.6855 25.999C31.4783 25.9992 32.121 26.6418 32.1211 27.4346V27.7637C32.1209 28.5563 31.4782 29.1991 30.6855 29.1992H19.2656C18.4729 29.1992 17.8302 28.5564 17.8301 27.7637V27.4346C17.8301 26.6418 18.4728 25.9991 19.2656 25.999H30.6855Z" fill="url(#paint4_linear_2538_63098)"/>
<path d="M34.7168 32L34.7168 31.8H34.7168V32ZM36.1523 33.4355L36.3523 33.4355L36.3523 33.4355L36.1523 33.4355ZM36.1523 33.7646L36.3523 33.7647V33.7646H36.1523ZM34.7168 35.2002L34.7168 35.4002L34.7168 35.4002L34.7168 35.2002ZM23.2969 35.2002L23.2969 35.4002H23.2969V35.2002ZM21.8613 33.7646L21.6613 33.7646L21.6613 33.7647L21.8613 33.7646ZM21.8613 33.4355L21.6613 33.4355V33.4355H21.8613ZM23.2969 32L23.2969 31.8L23.2969 31.8L23.2969 32ZM30.6855 25.999L30.6856 25.799H30.6855V25.999ZM32.1211 27.4346L32.3211 27.4346L32.3211 27.4346L32.1211 27.4346ZM32.1211 27.7637L32.3211 27.7637V27.7637H32.1211ZM30.6855 29.1992L30.6855 29.3992L30.6856 29.3992L30.6855 29.1992ZM19.2656 29.1992L19.2656 29.3992H19.2656V29.1992ZM17.8301 27.7637L17.6301 27.7637L17.6301 27.7637L17.8301 27.7637ZM17.8301 27.4346L17.6301 27.4346V27.4346H17.8301ZM19.2656 25.999L19.2656 25.799L19.2656 25.799L19.2656 25.999ZM34.7168 32L34.7168 32.2C35.3991 32.2001 35.9523 32.7533 35.9523 33.4356L36.1523 33.4355L36.3523 33.4355C36.3523 32.5323 35.62 31.8002 34.7168 31.8L34.7168 32ZM36.1523 33.4355H35.9523V33.7646H36.1523H36.3523V33.4355H36.1523ZM36.1523 33.7646L35.9523 33.7646C35.9522 34.4469 35.399 35.0001 34.7168 35.0002L34.7168 35.2002L34.7168 35.4002C35.6199 35.4 36.3521 34.6678 36.3523 33.7647L36.1523 33.7646ZM34.7168 35.2002V35.0002H23.2969V35.2002V35.4002H34.7168V35.2002ZM23.2969 35.2002L23.2969 35.0002C22.6146 35.0001 22.0615 34.4469 22.0613 33.7646L21.8613 33.7646L21.6613 33.7647C21.6615 34.6678 22.3937 35.4001 23.2969 35.4002L23.2969 35.2002ZM21.8613 33.7646H22.0613V33.4355H21.8613H21.6613V33.7646H21.8613ZM21.8613 33.4355L22.0613 33.4356C22.0614 32.7532 22.6145 32.2001 23.2969 32.2L23.2969 32L23.2969 31.8C22.3936 31.8001 21.6614 32.5323 21.6613 33.4355L21.8613 33.4355ZM23.2969 32V32.2H34.7168V32V31.8H23.2969V32ZM30.6855 25.999L30.6855 26.199C31.3678 26.1991 31.921 26.7523 31.9211 27.4346L32.1211 27.4346L32.3211 27.4346C32.321 26.5313 31.5887 25.7992 30.6856 25.799L30.6855 25.999ZM32.1211 27.4346H31.9211V27.7637H32.1211H32.3211V27.4346H32.1211ZM32.1211 27.7637L31.9211 27.7636C31.9209 28.4459 31.3678 28.9991 30.6855 28.9992L30.6855 29.1992L30.6856 29.3992C31.5887 29.3991 32.3209 28.6668 32.3211 27.7637L32.1211 27.7637ZM30.6855 29.1992V28.9992H19.2656V29.1992V29.3992H30.6855V29.1992ZM19.2656 29.1992L19.2656 28.9992C18.5834 28.9992 18.0302 28.4459 18.0301 27.7636L17.8301 27.7637L17.6301 27.7637C17.6303 28.6668 18.3624 29.3991 19.2656 29.3992L19.2656 29.1992ZM17.8301 27.7637H18.0301V27.4346H17.8301H17.6301V27.7637H17.8301ZM17.8301 27.4346L18.0301 27.4346C18.0301 26.7522 18.5833 26.1991 19.2656 26.199L19.2656 25.999L19.2656 25.799C18.3624 25.7991 17.6302 26.5313 17.6301 27.4346L17.8301 27.4346ZM19.2656 25.999V26.199H30.6855V25.999V25.799H19.2656V25.999Z" fill="url(#paint5_linear_2538_63098)" mask="url(#path-4-inside-1_2538_63098)"/>
<defs>
<clipPath id="bgblur_0_2538_63098_clip_path" transform="translate(-3.7998 -1.80005)"><path d="M22 44L31.8646 44C35.6068 44 37.4779 44 38.6474 42.8403C39.8169 41.6807 39.8327 39.8097 39.8643 36.0676L40 20L29.9229 12L22 12C18.2288 12 16.3431 12 15.1716 13.1716C14 14.3431 14 16.2288 14 20L14 36C14 39.7712 14 41.6569 15.1716 42.8284C16.3431 44 18.2288 44 22 44Z"/>
</clipPath><clipPath id="bgblur_1_2538_63098_clip_path" transform="translate(0.0771484 18)"><path d="M33.9229 19.9004C31.769 19.9003 30.0225 18.1539 30.0225 16L30.0225 12.207L39.7139 19.9004L33.9229 19.9004Z"/>
</clipPath><linearGradient id="paint0_linear_2538_63098" x1="38.6538" y1="8.8125" x2="59.7546" y2="18.7075" gradientUnits="userSpaceOnUse">
<stop stop-color="#6CA5F4"/>
<stop offset="1" stop-color="#2673E0"/>
</linearGradient>
<linearGradient id="paint1_linear_2538_63098" x1="37.6364" y1="9.71429" x2="11.7102" y2="50.5122" gradientUnits="userSpaceOnUse">
<stop stop-color="white"/>
<stop offset="1" stop-color="white" stop-opacity="0"/>
</linearGradient>
<linearGradient id="paint2_linear_2538_63098" x1="41.4926" y1="9.26314" x2="30.2747" y2="9.72385" gradientUnits="userSpaceOnUse">
<stop stop-color="white"/>
<stop offset="1" stop-color="white" stop-opacity="0.2"/>
</linearGradient>
<linearGradient id="paint3_linear_2538_63098" x1="38.3959" y1="19.068" x2="33.6524" y2="11.6678" gradientUnits="userSpaceOnUse">
<stop stop-color="white" stop-opacity="0.25"/>
<stop offset="1" stop-color="white" stop-opacity="0"/>
</linearGradient>
<linearGradient id="paint4_linear_2538_63098" x1="33.451" y1="29.1452" x2="15.2962" y2="29.8002" gradientUnits="userSpaceOnUse">
<stop stop-color="white"/>
<stop offset="1" stop-color="white" stop-opacity="0.2"/>
</linearGradient>
<linearGradient id="paint5_linear_2538_63098" x1="20.7467" y1="27.071" x2="24.9282" y2="37.3838" gradientUnits="userSpaceOnUse">
<stop stop-color="white" stop-opacity="0.25"/>
<stop offset="1" stop-color="white" stop-opacity="0"/>
</linearGradient>
</defs>
</svg>
