<svg width="24" height="24" viewBox="0 0 24 24" fill="none" xmlns="http://www.w3.org/2000/svg">
<path d="M12 5C13.4996 5 14.2497 5.00009 14.7754 5.38184C14.9451 5.50511 15.0945 5.65457 15.2178 5.82422C15.2885 5.9215 15.3466 6.02662 15.3936 6.14258H17C18.8855 6.14258 19.8283 6.14287 20.4141 6.72852C20.9998 7.31427 21 8.25715 21 10.1426V15C21 16.8856 20.9998 17.8283 20.4141 18.4141C19.8283 18.9998 18.8856 19 17 19H7C5.11438 19 4.17172 18.9998 3.58594 18.4141C3.00015 17.8283 3 16.8856 3 15V9.74316C3 8.04611 3.00014 7.19713 3.52734 6.66992C4.05452 6.14289 4.90296 6.14258 6.59961 6.14258H8.60742C8.65435 6.0267 8.71159 5.92144 8.78223 5.82422C8.90556 5.6545 9.05488 5.50515 9.22461 5.38184C9.75032 4.99993 10.5003 5 12 5Z" fill="url(#paint0_linear_2752_54187)"/>
<path d="M12 5L12 4.91L12 5ZM14.7754 5.38184L14.8283 5.30902L14.8283 5.30901L14.7754 5.38184ZM15.2178 5.82422L15.2906 5.77132L15.2906 5.7713L15.2178 5.82422ZM15.3936 6.14258L15.3101 6.17635L15.3329 6.23258H15.3936V6.14258ZM20.4141 6.72852L20.4777 6.66488L20.4777 6.66487L20.4141 6.72852ZM21 10.1426L21.09 10.1426L21 10.1426ZM20.4141 18.4141L20.4777 18.4777L20.4777 18.4777L20.4141 18.4141ZM3.58594 18.4141L3.5223 18.4777L3.5223 18.4777L3.58594 18.4141ZM3 15H2.91H3ZM3.52734 6.66992L3.46371 6.60627L3.4637 6.60628L3.52734 6.66992ZM6.59961 6.14258L6.59961 6.05258L6.59961 6.14258ZM8.60742 6.14258V6.23258H8.66808L8.69084 6.17636L8.60742 6.14258ZM8.78223 5.82422L8.70942 5.77131L8.70942 5.77132L8.78223 5.82422ZM9.22461 5.38184L9.17171 5.30902L9.17171 5.30902L9.22461 5.38184ZM12 5V5.09C12.7518 5.09 13.3085 5.09015 13.7432 5.13724C14.1762 5.18415 14.4775 5.27678 14.7225 5.45466L14.7754 5.38184L14.8283 5.30901C14.5475 5.10514 14.2109 5.00686 13.7626 4.95829C13.3159 4.9099 12.7478 4.91 12 4.91V5ZM14.7754 5.38184L14.7225 5.45465C14.8845 5.57236 15.0272 5.71511 15.145 5.87714L15.2178 5.82422L15.2906 5.7713C15.1617 5.59404 15.0056 5.43786 14.8283 5.30902L14.7754 5.38184ZM15.2178 5.82422L15.145 5.87712C15.2112 5.9683 15.2659 6.06697 15.3101 6.17635L15.3936 6.14258L15.477 6.10881C15.4274 5.98626 15.3657 5.87469 15.2906 5.77132L15.2178 5.82422ZM15.3936 6.14258V6.23258H17V6.14258V6.05258H15.3936V6.14258ZM17 6.14258V6.23258C17.9453 6.23258 18.6452 6.23284 19.1824 6.30513C19.717 6.37706 20.077 6.51884 20.3504 6.79216L20.4141 6.72852L20.4777 6.66487C20.1653 6.35255 19.761 6.20135 19.2064 6.12673C18.6544 6.05246 17.9402 6.05258 17 6.05258V6.14258ZM20.4141 6.72852L20.3504 6.79216C20.6238 7.06553 20.7656 7.42553 20.8375 7.96017C20.9098 8.49739 20.91 9.19732 20.91 10.1426L21 10.1426L21.09 10.1426C21.09 9.2024 21.0901 8.48818 21.0159 7.93617C20.9413 7.38157 20.7901 6.97726 20.4777 6.66488L20.4141 6.72852ZM21 10.1426H20.91V15H21H21.09V10.1426H21ZM21 15H20.91C20.91 15.9453 20.9098 16.6453 20.8375 17.1825C20.7656 17.7171 20.6238 18.077 20.3504 18.3504L20.4141 18.4141L20.4777 18.4777C20.7901 18.1653 20.9413 17.761 21.0159 17.2065C21.0902 16.6545 21.09 15.9403 21.09 15H21ZM20.4141 18.4141L20.3504 18.3504C20.077 18.6238 19.7171 18.7656 19.1825 18.8375C18.6453 18.9098 17.9453 18.91 17 18.91V19V19.09C17.9403 19.09 18.6545 19.0902 19.2065 19.0159C19.761 18.9413 20.1653 18.7901 20.4777 18.4777L20.4141 18.4141ZM17 19V18.91H7V19V19.09H17V19ZM7 19V18.91C6.05465 18.91 5.35473 18.9098 4.81753 18.8375C4.28293 18.7656 3.92297 18.6238 3.64958 18.3504L3.58594 18.4141L3.5223 18.4777C3.8347 18.7901 4.23896 18.9413 4.79353 19.0159C5.34552 19.0902 6.05973 19.09 7 19.09V19ZM3.58594 18.4141L3.64958 18.3504C3.37619 18.077 3.23441 17.7171 3.1625 17.1825C3.09023 16.6453 3.09 15.9453 3.09 15H3H2.91C2.91 15.9403 2.90985 16.6545 2.9841 17.2065C3.05871 17.761 3.2099 18.1653 3.5223 18.4777L3.58594 18.4141ZM3 15H3.09V9.74316H3H2.91V15H3ZM3 9.74316H3.09C3.09 8.8921 3.09023 8.26273 3.15517 7.77985C3.21976 7.29954 3.34689 6.97765 3.59098 6.73356L3.52734 6.66992L3.4637 6.60628C3.18059 6.8894 3.04405 7.2556 2.97677 7.75585C2.90984 8.25352 2.91 8.89718 2.91 9.74316H3ZM3.52734 6.66992L3.59097 6.73357C3.83506 6.48955 4.15682 6.36242 4.63693 6.29781C5.11962 6.23285 5.74875 6.23258 6.59961 6.23258L6.59961 6.14258L6.59961 6.05258C5.75382 6.05258 5.11041 6.05247 4.61292 6.11942C4.11285 6.18672 3.7468 6.32326 3.46371 6.60627L3.52734 6.66992ZM6.59961 6.14258V6.23258H8.60742V6.14258V6.05258H6.59961V6.14258ZM8.60742 6.14258L8.69084 6.17636C8.73527 6.06664 8.78908 5.9679 8.85504 5.87712L8.78223 5.82422L8.70942 5.77132C8.63411 5.87497 8.57342 5.98676 8.524 6.1088L8.60742 6.14258ZM8.78223 5.82422L8.85503 5.87713C8.97282 5.71504 9.11542 5.57241 9.27751 5.45465L9.22461 5.38184L9.17171 5.30902C8.99433 5.4379 8.8383 5.59396 8.70942 5.77131L8.78223 5.82422ZM9.22461 5.38184L9.27751 5.45465C9.52246 5.2767 9.82373 5.18407 10.2567 5.13718C10.6914 5.09011 11.2481 5.09 12 5.09L12 5L12 4.91C11.2521 4.91 10.684 4.90986 10.2374 4.95823C9.78904 5.00678 9.45247 5.10506 9.17171 5.30902L9.22461 5.38184Z" fill="url(#paint1_linear_2752_54187)"/>
<path d="M12 9.0498C14.1815 9.0498 15.9502 10.8185 15.9502 13C15.9502 15.1815 14.1815 16.9502 12 16.9502C9.81848 16.9502 8.0498 15.1815 8.0498 13C8.0498 10.8185 9.81848 9.0498 12 9.0498ZM12 10.9502C10.8678 10.9502 9.9502 11.8678 9.9502 13C9.9502 14.1322 10.8678 15.0498 12 15.0498C13.1322 15.0498 14.0498 14.1322 14.0498 13C14.0498 11.8678 13.1322 10.9502 12 10.9502Z" fill="url(#paint2_linear_2752_54187)" stroke="url(#paint3_linear_2752_54187)" stroke-width="0.1"/>
<rect x="18.05" y="7.05" width="1.9" height="1.9" rx="0.95" fill="url(#paint4_linear_2752_54187)" fill-opacity="0.9" stroke="url(#paint5_linear_2752_54187)" stroke-width="0.1"/>
<defs>
<linearGradient id="paint0_linear_2752_54187" x1="20.1" y1="18.0625" x2="5.93293" y2="11.7118" gradientUnits="userSpaceOnUse">
<stop stop-color="#6CA6F4"/>
<stop offset="1" stop-color="#2773E0"/>
</linearGradient>
<linearGradient id="paint1_linear_2752_54187" x1="3.45" y1="4" x2="21.5716" y2="18.2743" gradientUnits="userSpaceOnUse">
<stop stop-color="white"/>
<stop offset="1" stop-color="white" stop-opacity="0"/>
</linearGradient>
<linearGradient id="paint2_linear_2752_54187" x1="9.11553" y1="9.58334" x2="18.9606" y2="11.8278" gradientUnits="userSpaceOnUse">
<stop stop-color="white"/>
<stop offset="1" stop-color="white" stop-opacity="0"/>
</linearGradient>
<linearGradient id="paint3_linear_2752_54187" x1="12" y1="9" x2="12" y2="17" gradientUnits="userSpaceOnUse">
<stop stop-color="white"/>
<stop offset="1" stop-color="white" stop-opacity="0"/>
</linearGradient>
<linearGradient id="paint4_linear_2752_54187" x1="18.2789" y1="7.14584" x2="20.7401" y2="7.70695" gradientUnits="userSpaceOnUse">
<stop stop-color="white"/>
<stop offset="1" stop-color="white" stop-opacity="0"/>
</linearGradient>
<linearGradient id="paint5_linear_2752_54187" x1="19" y1="7" x2="19" y2="9" gradientUnits="userSpaceOnUse">
<stop stop-color="white"/>
<stop offset="1" stop-color="white" stop-opacity="0"/>
</linearGradient>
</defs>
</svg>
