<svg width="172" height="45" viewBox="0 0 172 45" fill="none" xmlns="http://www.w3.org/2000/svg">
<path d="M18.4316 0C22.613 0 26.0483 0.639923 28.7363 1.91992C31.4241 3.19991 33.4085 4.94942 34.6885 7.16797C36.0109 9.34378 36.6718 11.8396 36.6719 14.6553V15.0391H29.8242V14.208C29.8242 12.4587 29.4399 11.0075 28.6719 9.85547C27.9039 8.66095 26.6456 7.7861 24.8965 7.23145C23.1472 6.63411 20.7787 6.33594 17.792 6.33594C15.1893 6.33594 13.0774 6.54893 11.4561 6.97559C9.8774 7.40225 8.72533 8.04218 8 8.89551C7.27467 9.70617 6.91211 10.773 6.91211 12.0957C6.91213 13.29 7.16792 14.2712 7.67969 15.0391C8.19167 15.807 8.98125 16.4262 10.0479 16.8955C11.1144 17.3221 12.4798 17.7274 14.1436 18.1113L24.5762 19.9033C27.4348 20.4153 29.8024 21.184 31.6797 22.208C33.5996 23.232 35.0291 24.5328 35.9678 26.1113C36.9064 27.6899 37.3759 29.5247 37.376 31.6152C37.376 33.7912 36.7569 35.8398 35.5195 37.7598C34.2822 39.6795 32.3413 41.2371 29.6963 42.4316C27.051 43.5836 23.6156 44.1592 19.3916 44.1592C15.1678 44.1591 11.6053 43.5618 8.7041 42.3672C5.8455 41.1725 3.69089 39.4875 2.24023 37.3115C0.789627 35.0929 0.0645121 32.4904 0.0644531 29.5039V29.1191H6.97559V30.1436C6.97559 31.8502 7.35993 33.2796 8.12793 34.4316C8.89589 35.5409 10.176 36.3939 11.9678 36.9912C13.7597 37.5459 16.2345 37.8232 19.3916 37.8232C22.1223 37.8232 24.2986 37.6311 25.9199 37.2471C27.5412 36.8204 28.6933 36.1805 29.376 35.3271C30.1011 34.4313 30.4638 33.3224 30.4639 32C30.4639 30.1227 29.8665 28.7567 28.6719 27.9033C27.4772 27.0501 25.5355 26.3674 22.8477 25.8555L12.3516 24.1279C9.96237 23.6586 7.82939 22.9751 5.95215 22.0791C4.07484 21.1404 2.60279 19.9032 1.53613 18.3672C0.512215 16.7886 0 14.8261 0 12.4795C7.34675e-06 10.9435 0.341755 9.42887 1.02441 7.93555C1.70707 6.44231 2.77307 5.09792 4.22363 3.90332C5.6743 2.70865 7.55245 1.77056 9.85645 1.08789C12.203 0.362648 15.0613 2.58564e-05 18.4316 0ZM83.8945 11.0713C87.2652 11.0713 90.0171 11.6478 92.1504 12.7998C94.3262 13.9091 95.9262 15.4447 96.9502 17.4072C98.0168 19.3699 98.5508 21.6315 98.5508 24.1914V43.5195H92.2148V35.584H91.7666C90.9132 38.2718 89.2707 40.384 86.8389 41.9199C84.4495 43.4133 81.4411 44.1592 77.8145 44.1592C74.5291 44.1592 71.905 43.4341 69.9424 41.9834C68.0226 40.4901 67.0626 38.4423 67.0625 35.8398C67.0625 34.1759 67.4677 32.789 68.2783 31.6797C69.1316 30.5277 70.3263 29.6312 71.8623 28.9912C73.3983 28.3512 75.2121 27.9035 77.3027 27.6475L91.7666 26.1152V24.2559C91.7666 21.6107 91.1265 19.776 89.8467 18.752C88.6094 17.6853 86.4546 17.1514 83.3828 17.1514C80.4388 17.1514 78.2407 17.6635 76.79 18.6875C75.3396 19.7115 74.6143 21.3968 74.6143 23.7432V24H67.7666V23.7432C67.7667 21.3113 68.4066 19.1565 69.6865 17.2793C70.9665 15.3594 72.8012 13.8447 75.1904 12.7354C77.6224 11.626 80.5239 11.0713 83.8945 11.0713ZM117.225 11.0713C120.467 11.0713 123.241 11.4982 125.545 12.3516C127.891 13.2049 129.684 14.4848 130.921 16.1914C132.201 17.898 132.841 20.0102 132.841 22.5273V22.7197H125.992V22.3359C125.992 21.0986 125.737 20.0526 125.225 19.1992C124.713 18.346 123.795 17.7059 122.473 17.2793C121.193 16.81 119.379 16.5752 117.032 16.5752C114.088 16.5752 112.041 16.917 110.889 17.5996C109.737 18.2822 109.16 19.3701 109.16 20.8633C109.16 22.1006 109.587 22.9971 110.44 23.5518C111.294 24.1064 112.894 24.5542 115.24 24.8955L122.601 25.9199C126.355 26.3893 129.129 27.3066 130.921 28.6719C132.713 30.0372 133.608 32.0424 133.608 34.6875C133.608 36.6501 132.99 38.357 131.753 39.8076C130.516 41.2156 128.787 42.3033 126.568 43.0713C124.35 43.7966 121.747 44.1592 118.761 44.1592C113.641 44.1592 109.672 43.1784 106.856 41.2158C104.083 39.2532 102.696 36.4369 102.696 32.7676V32.5752H109.608V33.0879C109.608 35.1783 110.291 36.6288 111.656 37.4395C113.064 38.2075 115.433 38.5918 118.761 38.5918C121.875 38.5918 123.987 38.2718 125.097 37.6318C126.249 36.9492 126.824 35.9031 126.824 34.4951C126.824 33.1727 126.376 32.2343 125.48 31.6797C124.627 31.125 123.048 30.6981 120.744 30.3994L112.04 29.2471C109.011 28.863 106.643 28.0101 104.937 26.6875C103.23 25.3222 102.377 23.2954 102.377 20.6074C102.377 18.7303 102.931 17.0876 104.04 15.6797C105.149 14.229 106.814 13.0978 109.032 12.2871C111.251 11.4764 113.982 11.0713 117.225 11.0713ZM51.627 11.7119H63.1465V17.4717H51.627V32.3838C51.627 34.3463 52.0965 35.6689 53.0352 36.3516C53.9738 36.9915 55.4243 37.3115 57.3867 37.3115H63.1465V43.5195H55.8506C52.4374 43.5195 49.7279 42.6874 47.7227 41.0234C45.7601 39.3594 44.7793 36.6074 44.7793 32.7676V17.4717H39.4033V11.7119H44.7793V4.73535H51.627V11.7119ZM144.508 21.4395H144.892C145.276 19.6476 145.958 17.9624 146.939 16.3838C147.963 14.8052 149.393 13.5253 151.228 12.5439C153.062 11.5626 155.324 11.0713 158.012 11.0713C160.913 11.0713 163.323 11.6688 165.243 12.8633C167.206 14.0152 168.657 15.6152 169.596 17.6631C170.577 19.6683 171.067 21.9727 171.067 24.5752V43.5195H164.22V26.2393C164.22 23.0394 163.473 20.7569 161.979 19.3916C160.486 17.9836 158.075 17.2793 154.747 17.2793C152.23 17.2793 150.225 17.7272 148.731 18.623C147.238 19.4764 146.15 20.7146 145.468 22.3359C144.828 23.9146 144.508 25.8345 144.508 28.0957V43.5195H137.596V0.639648H144.508V21.4395ZM79.2861 31.6152C77.4945 31.8286 76.1508 32.213 75.2549 32.7676C74.4015 33.2796 73.9746 34.1543 73.9746 35.3916C73.9746 36.6715 74.4225 37.6315 75.3184 38.2715C76.257 38.8688 77.7082 39.168 79.6709 39.168C82.1027 39.1679 84.2149 38.8688 86.0068 38.2715C87.7987 37.6315 89.2065 36.6497 90.2305 35.3271C91.2532 34.0061 91.7644 32.3021 91.7656 30.2148L79.2861 31.6152Z" fill="white"/>
</svg>
